# xmcd CD database file
#
# Track frame offsets:
#	187
#	15485
#	42282
#	72907
#	94345
#	117170
#	149370
#	185132
#	202520
#	222760
#	254735
#
# Disc length: 3530 seconds
#
# Revision: 0
# Processed by: cddbd v1.5.1PL0 Copyright (c) Steve Scherf et al.
# Submitted via: CDex 1.51
#
DISCID=9f0dc80b
DTITLE=Jimmy Smith - The best of Jimmy Smith
DYEAR=1987
DGENRE=Jazz
TTITLE0=The cat
TTITLE1=Walk on the wild side
TTITLE2=Night train
TTITLE3=Blues in the night
TTITLE4=Blue bash
TTITLE5=Slaughter on 10th avenue
TTITLE6=Got my mojo workin'
TTITLE7=C Jam blues
TTITLE8=Who's afraid of virginia woolf?
TTITLE9=Satin doll
TTITLE10=The organ grinder's swing
EXTD=YEAR: 1987
EXTT0=
EXTT1=
EXTT2=
EXTT3=
EXTT4=
EXTT5=
EXTT6=
EXTT7=
EXTT8=
EXTT9=
EXTT10=
PLAYORDER=
